<mxfile host="app.diagrams.net" modified="2023-04-07T09:50:58.120Z" agent="Mozilla/5.0 (Macintosh; Intel Mac OS X 10_15_7) AppleWebKit/605.1.15 (KHTML, like Gecko) Version/16.4 Safari/605.1.15" etag="hqdrDoLQb3rRIUUW_jEz" version="21.1.5" type="github">
  <diagram name="Page-1" id="2a216829-ef6e-dabb-86c1-c78162f3ba2b">
    <mxGraphModel dx="1146" dy="1101" grid="1" gridSize="10" guides="1" tooltips="1" connect="1" arrows="1" fold="1" page="1" pageScale="1" pageWidth="850" pageHeight="1100" background="none" math="0" shadow="0">
      <root>
        <mxCell id="0" />
        <mxCell id="1" parent="0" />
        <mxCell id="ydXSWsrnUFX_iwf4C8rq-10" style="edgeStyle=orthogonalEdgeStyle;rounded=0;orthogonalLoop=1;jettySize=auto;html=1;exitX=1;exitY=1;exitDx=0;exitDy=0;entryX=0.25;entryY=0.25;entryDx=0;entryDy=0;entryPerimeter=0;" edge="1" parent="1" source="7a84cebc1def654-2" target="7a84cebc1def654-24">
          <mxGeometry relative="1" as="geometry" />
        </mxCell>
        <mxCell id="7a84cebc1def654-2" value="Farmer 1" style="shape=ext;rounded=1;html=1;whiteSpace=wrap;" parent="1" vertex="1">
          <mxGeometry x="330" y="290" width="120" height="80" as="geometry" />
        </mxCell>
        <mxCell id="ydXSWsrnUFX_iwf4C8rq-12" style="edgeStyle=orthogonalEdgeStyle;rounded=0;orthogonalLoop=1;jettySize=auto;html=1;exitX=1;exitY=0.5;exitDx=0;exitDy=0;entryX=0;entryY=0.5;entryDx=0;entryDy=0;" edge="1" parent="1" source="7a84cebc1def654-3" target="7a84cebc1def654-24">
          <mxGeometry relative="1" as="geometry" />
        </mxCell>
        <mxCell id="7a84cebc1def654-3" value="Farmer 2" style="shape=ext;rounded=1;html=1;whiteSpace=wrap;" parent="1" vertex="1">
          <mxGeometry x="330" y="442.5" width="120" height="80" as="geometry" />
        </mxCell>
        <mxCell id="ydXSWsrnUFX_iwf4C8rq-18" style="edgeStyle=orthogonalEdgeStyle;rounded=0;orthogonalLoop=1;jettySize=auto;html=1;exitX=1;exitY=0.25;exitDx=0;exitDy=0;entryX=0;entryY=0.5;entryDx=0;entryDy=0;" edge="1" parent="1" source="7a84cebc1def654-6" target="7a84cebc1def654-14">
          <mxGeometry relative="1" as="geometry" />
        </mxCell>
        <mxCell id="ydXSWsrnUFX_iwf4C8rq-19" style="edgeStyle=orthogonalEdgeStyle;rounded=0;orthogonalLoop=1;jettySize=auto;html=1;exitX=1;exitY=0.5;exitDx=0;exitDy=0;" edge="1" parent="1" source="7a84cebc1def654-6" target="7a84cebc1def654-16">
          <mxGeometry relative="1" as="geometry" />
        </mxCell>
        <mxCell id="ydXSWsrnUFX_iwf4C8rq-20" style="edgeStyle=orthogonalEdgeStyle;rounded=0;orthogonalLoop=1;jettySize=auto;html=1;exitX=1;exitY=0.75;exitDx=0;exitDy=0;entryX=0;entryY=0.5;entryDx=0;entryDy=0;" edge="1" parent="1" source="7a84cebc1def654-6" target="7a84cebc1def654-12">
          <mxGeometry relative="1" as="geometry" />
        </mxCell>
        <mxCell id="ydXSWsrnUFX_iwf4C8rq-27" style="edgeStyle=orthogonalEdgeStyle;rounded=0;orthogonalLoop=1;jettySize=auto;html=1;exitX=0.375;exitY=1;exitDx=0;exitDy=0;entryX=0.5;entryY=0;entryDx=0;entryDy=0;" edge="1" parent="1" source="7a84cebc1def654-6" target="7a84cebc1def654-34">
          <mxGeometry relative="1" as="geometry" />
        </mxCell>
        <mxCell id="ydXSWsrnUFX_iwf4C8rq-29" style="edgeStyle=orthogonalEdgeStyle;rounded=0;orthogonalLoop=1;jettySize=auto;html=1;exitX=0.625;exitY=1;exitDx=0;exitDy=0;entryX=0.5;entryY=0;entryDx=0;entryDy=0;" edge="1" parent="1" source="7a84cebc1def654-6" target="7a84cebc1def654-31">
          <mxGeometry relative="1" as="geometry" />
        </mxCell>
        <mxCell id="7a84cebc1def654-6" value="Meat &amp;amp; Wine" style="shape=hexagon;whiteSpace=wrap;html=1;perimeter=hexagonPerimeter;" parent="1" vertex="1">
          <mxGeometry x="555" y="410" width="190" height="145" as="geometry" />
        </mxCell>
        <mxCell id="7a84cebc1def654-7" value="" style="html=1;shape=plus;" parent="7a84cebc1def654-6" vertex="1">
          <mxGeometry x="0.5" y="1" width="14" height="14" relative="1" as="geometry">
            <mxPoint x="-7" y="-14" as="offset" />
          </mxGeometry>
        </mxCell>
        <mxCell id="7a84cebc1def654-24" value="" style="shape=mxgraph.bpmn.shape;html=1;verticalLabelPosition=bottom;labelBackgroundColor=#ffffff;verticalAlign=top;perimeter=rhombusPerimeter;background=gateway;outline=none;symbol=parallelGw;" parent="7a84cebc1def654-6" vertex="1">
          <mxGeometry x="-15" y="47.5" width="50" height="50" as="geometry" />
        </mxCell>
        <mxCell id="ydXSWsrnUFX_iwf4C8rq-14" style="edgeStyle=orthogonalEdgeStyle;rounded=0;orthogonalLoop=1;jettySize=auto;html=1;exitX=1;exitY=0;exitDx=0;exitDy=0;entryX=0.25;entryY=0.75;entryDx=0;entryDy=0;entryPerimeter=0;" edge="1" parent="1" source="7a84cebc1def654-8" target="7a84cebc1def654-24">
          <mxGeometry relative="1" as="geometry" />
        </mxCell>
        <mxCell id="7a84cebc1def654-8" value="Farmer n" style="shape=ext;rounded=1;html=1;whiteSpace=wrap;" parent="1" vertex="1">
          <mxGeometry x="330" y="590" width="120" height="80" as="geometry" />
        </mxCell>
        <mxCell id="7a84cebc1def654-12" value="Buyer n" style="html=1;whiteSpace=wrap;rounded=1;" parent="1" vertex="1">
          <mxGeometry x="870" y="580" width="120" height="80" as="geometry" />
        </mxCell>
        <mxCell id="7a84cebc1def654-14" value="Buyer 1" style="html=1;whiteSpace=wrap;rounded=1;" parent="1" vertex="1">
          <mxGeometry x="870" y="290" width="120" height="80" as="geometry" />
        </mxCell>
        <mxCell id="7a84cebc1def654-16" value="Buyer 2" style="html=1;whiteSpace=wrap;rounded=1;" parent="1" vertex="1">
          <mxGeometry x="870" y="442.5" width="120" height="80" as="geometry" />
        </mxCell>
        <mxCell id="7a84cebc1def654-20" value="Foreign Custom" style="html=1;whiteSpace=wrap;rounded=1;" parent="1" vertex="1">
          <mxGeometry x="710" y="790" width="120" height="80" as="geometry" />
        </mxCell>
        <mxCell id="ydXSWsrnUFX_iwf4C8rq-30" style="edgeStyle=orthogonalEdgeStyle;rounded=0;orthogonalLoop=1;jettySize=auto;html=1;exitX=0.5;exitY=1;exitDx=0;exitDy=0;entryX=0.25;entryY=0;entryDx=0;entryDy=0;" edge="1" parent="1" source="7a84cebc1def654-31" target="7a84cebc1def654-20">
          <mxGeometry relative="1" as="geometry" />
        </mxCell>
        <mxCell id="7a84cebc1def654-31" value="" style="shape=message;whiteSpace=wrap;html=1;" parent="1" vertex="1">
          <mxGeometry x="720" y="700" width="40" height="30" as="geometry" />
        </mxCell>
        <mxCell id="ydXSWsrnUFX_iwf4C8rq-28" style="edgeStyle=orthogonalEdgeStyle;rounded=0;orthogonalLoop=1;jettySize=auto;html=1;exitX=0.5;exitY=1;exitDx=0;exitDy=0;entryX=0.833;entryY=0.125;entryDx=0;entryDy=0;entryPerimeter=0;" edge="1" parent="1" source="7a84cebc1def654-34" target="7a84cebc1def654-22">
          <mxGeometry relative="1" as="geometry" />
        </mxCell>
        <mxCell id="7a84cebc1def654-34" value="" style="shape=message;whiteSpace=wrap;html=1;" parent="1" vertex="1">
          <mxGeometry x="553" y="700" width="40" height="30" as="geometry" />
        </mxCell>
        <mxCell id="7a84cebc1def654-22" value="Australian Custom" style="html=1;whiteSpace=wrap;rounded=1;" parent="1" vertex="1">
          <mxGeometry x="473" y="790" width="120" height="80" as="geometry" />
        </mxCell>
        <mxCell id="ydXSWsrnUFX_iwf4C8rq-23" value="" style="shape=actor;whiteSpace=wrap;html=1;" vertex="1" parent="1">
          <mxGeometry x="483" y="750" width="40" height="60" as="geometry" />
        </mxCell>
        <mxCell id="ydXSWsrnUFX_iwf4C8rq-24" value="" style="shape=actor;whiteSpace=wrap;html=1;" vertex="1" parent="1">
          <mxGeometry x="780" y="750" width="40" height="60" as="geometry" />
        </mxCell>
      </root>
    </mxGraphModel>
  </diagram>
</mxfile>
